<?xml version="1.0" standalone="no"?>
<!DOCTYPE svg PUBLIC "-//W3C//DTD SVG 20010904//EN"
 "https://www.w3.org/TR/2001/REC-SVG-20010904/DTD/svg10.dtd">
<svg version="1.0" xmlns="https://www.w3.org/2000/svg"
 width="500.000000pt" height="500.000000pt" viewBox="0 0 500.000000 500.000000"
 preserveAspectRatio="xMidYMid meet">
<metadata>
Created by potrace 1.14, written by Peter Selinger 2001-2017
</metadata>
<g transform="translate(0.000000,500.000000) scale(0.100000,-0.100000)"
fill="#000000" stroke="none">
<path d="M1765 4438 c-60 -10 -298 -64 -375 -85 -91 -25 -85 3 -82 -391 2
-191 5 -428 7 -527 2 -99 7 -328 10 -509 3 -181 10 -337 15 -346 8 -16 28 -26
85 -45 16 -5 12 -9 -25 -27 -25 -11 -85 -35 -135 -53 -49 -18 -98 -37 -108
-40 -17 -7 -18 -23 -14 -260 l4 -252 -61 14 c-34 7 -94 22 -134 33 -93 26
-108 25 -146 -5 -17 -14 -35 -29 -41 -33 -5 -5 -84 -64 -175 -133 -91 -69
-217 -165 -280 -213 -63 -49 -141 -107 -172 -130 -60 -43 -89 -86 -82 -120 2
-12 5 -38 6 -59 1 -38 17 -60 46 -62 10 -1 60 -14 112 -29 52 -14 120 -33 150
-42 61 -17 245 -74 420 -129 131 -42 374 -113 408 -121 12 -2 45 -13 71 -24
27 -10 60 -21 73 -23 13 -2 30 -7 38 -10 27 -11 215 -70 230 -72 8 -1 27 -7
41 -13 14 -6 39 -12 56 -15 17 -3 41 -11 54 -18 13 -7 26 -12 29 -12 3 0 10
-1 15 -3 197 -65 755 -234 772 -234 15 0 176 94 251 146 35 24 65 44 68 44 3
0 33 19 67 42 70 48 167 108 175 108 2 0 25 15 51 33 25 18 67 46 94 61 26 16
53 38 59 50 7 11 13 68 13 126 2 84 5 104 16 101 8 -2 41 -4 74 -6 54 -2 68 1
130 35 39 21 95 51 125 66 30 16 57 31 60 34 5 5 30 19 150 82 36 19 83 46
105 58 40 24 395 217 575 313 52 28 124 68 159 89 35 21 73 41 85 44 11 3 32
14 46 26 l25 20 3 347 c3 300 2 349 -11 360 -9 6 -52 21 -96 31 -164 40 -576
126 -631 133 -19 3 -50 8 -69 12 l-34 8 49 43 c27 24 73 61 101 81 34 24 57
50 63 70 6 18 13 135 16 260 10 507 13 849 8 865 -6 19 -54 38 -96 38 -16 0
-50 11 -76 24 -83 42 -207 71 -427 102 -60 8 -121 17 -135 19 -81 14 -222 35
-265 40 -27 3 -76 10 -107 16 -204 36 -348 47 -543 44 -110 -2 -234 -7 -275
-11 -115 -12 -281 -7 -308 10 -4 2 -29 7 -56 10 -27 4 -53 9 -58 12 -14 9
-142 10 -193 2z"/>
<path d="M3664 1107 c-21 -19 -131 -103 -244 -187 -113 -85 -209 -158 -215
-162 -5 -5 -35 -24 -66 -44 -44 -26 -58 -41 -61 -63 -6 -38 13 -61 54 -67 51
-7 237 -58 523 -144 143 -43 320 -95 393 -115 l134 -36 46 36 c26 20 71 57
101 83 30 26 78 65 106 87 156 120 240 188 243 196 2 5 8 9 12 9 5 0 32 22 59
49 40 37 51 55 51 79 0 28 -4 32 -38 41 -21 6 -57 13 -80 16 -24 3 -66 14 -95
25 -75 29 -224 63 -239 54 -7 -4 -10 -3 -5 1 4 5 -102 37 -235 71 -134 34
-272 72 -306 83 -84 28 -92 27 -138 -12z"/>
</g>
</svg>
